<svg xmlns="http://www.w3.org/2000/svg" xmlns:xlink="http://www.w3.org/1999/xlink" width="1800" zoomAndPan="magnify" viewBox="0 0 1350 449.999984" height="600" preserveAspectRatio="xMidYMid meet" version="1.0"><defs><g/><clipPath id="4ee5ed5975"><path d="M 0.679688 0.640625 L 1253.480469 0.640625 L 1253.480469 424 L 0.679688 424 Z M 0.679688 0.640625 " clip-rule="nonzero"/></clipPath><clipPath id="4d818dffe9"><rect x="0" width="1254" y="0" height="424"/></clipPath><clipPath id="b096d95559"><path d="M 178.464844 385 L 657.988281 385 L 657.988281 401 L 178.464844 401 Z M 178.464844 385 " clip-rule="nonzero"/></clipPath><clipPath id="fac6f309bc"><path d="M 653.203125 385 L 1085.613281 385 L 1085.613281 401 L 653.203125 401 Z M 653.203125 385 " clip-rule="nonzero"/></clipPath><clipPath id="4536a27bb0"><rect x="0" width="1254" y="0" height="424"/></clipPath></defs><g transform="matrix(1, 0, 0, 1, 43, 26)"><g clip-path="url(#4536a27bb0)"><g clip-path="url(#4ee5ed5975)"><g transform="matrix(1, 0, 0, 1, -0.000000000000007105, -0.000000000000007105)"><g clip-path="url(#4d818dffe9)"><g fill="#000000" fill-opacity="1"><g transform="translate(1.610919, 303.670214)"><g><path d="M 12.015625 -300.203125 L 52.234375 -300.203125 C 48.234375 -296.203125 45.582031 -290.195312 44.28125 -282.1875 C 42.976562 -274.1875 42.375 -265.179688 42.46875 -255.171875 C 42.570312 -245.160156 42.625 -235.15625 42.625 -225.15625 L 42.625 -47.125 L 61.84375 -78.953125 C 67.644531 -88.554688 74.296875 -99.660156 81.796875 -112.265625 C 89.304688 -124.878906 97.113281 -138.191406 105.21875 -152.203125 C 113.320312 -166.210938 121.226562 -180.222656 128.9375 -194.234375 C 136.644531 -208.242188 143.550781 -221.5 149.65625 -234 C 155.757812 -246.507812 160.660156 -257.46875 164.359375 -266.875 C 168.066406 -276.28125 169.921875 -283.285156 169.921875 -287.890625 C 169.921875 -291.097656 169.519531 -293.5 168.71875 -295.09375 C 167.914062 -296.695312 166.914062 -298.398438 165.71875 -300.203125 L 226.953125 -300.203125 C 221.347656 -298.398438 215.039062 -294.394531 208.03125 -288.1875 C 201.03125 -281.988281 193.726562 -274.132812 186.125 -264.625 C 178.519531 -255.125 170.8125 -244.617188 163 -233.109375 C 155.195312 -221.597656 147.796875 -209.835938 140.796875 -197.828125 C 135.585938 -188.828125 130.628906 -180.320312 125.921875 -172.3125 C 121.222656 -164.3125 116.570312 -156.507812 111.96875 -148.90625 C 119.375 -137.894531 126.078125 -128.035156 132.078125 -119.328125 C 138.085938 -110.617188 143.894531 -102.257812 149.5 -94.25 C 155.101562 -86.25 160.804688 -77.945312 166.609375 -69.34375 C 172.410156 -60.738281 178.914062 -51.132812 186.125 -40.53125 C 190.925781 -33.320312 196.03125 -26.816406 201.4375 -21.015625 C 206.84375 -15.210938 211.84375 -10.609375 216.4375 -7.203125 C 221.039062 -3.796875 224.644531 -1.894531 227.25 -1.5 L 227.25 0 L 201.4375 0 C 198.238281 0 194.734375 -1.445312 190.921875 -4.34375 C 187.117188 -7.25 183.316406 -10.851562 179.515625 -15.15625 C 175.710938 -19.457031 172.160156 -23.910156 168.859375 -28.515625 C 165.554688 -33.117188 162.707031 -37.125 160.3125 -40.53125 C 152.5 -52.332031 145.390625 -62.882812 138.984375 -72.1875 C 132.585938 -81.5 126.285156 -90.609375 120.078125 -99.515625 C 113.878906 -108.421875 107.175781 -118.078125 99.96875 -128.484375 C 92.757812 -116.273438 85.851562 -104.765625 79.25 -93.953125 C 72.644531 -83.148438 65.988281 -71.992188 59.28125 -60.484375 C 52.582031 -48.984375 45.53125 -35.828125 38.125 -21.015625 C 37.519531 -19.609375 36.316406 -17.203125 34.515625 -13.796875 C 32.722656 -10.398438 30.820312 -7.25 28.8125 -4.34375 C 26.8125 -1.445312 25.210938 0 24.015625 0 C 22.410156 0 21.609375 -1.5 21.609375 -4.5 L 21.609375 -225.15625 C 21.609375 -235.15625 21.660156 -245.160156 21.765625 -255.171875 C 21.867188 -265.179688 21.269531 -274.1875 19.96875 -282.1875 C 18.664062 -290.195312 16.015625 -296.203125 12.015625 -300.203125 Z M 12.015625 -300.203125 "/></g></g></g><g fill="#000000" fill-opacity="1"><g transform="translate(230.648844, 303.670214)"><g><path d="M 51.9375 0 L 11.703125 0 C 15.710938 -4 18.363281 -10 19.65625 -18 C 20.957031 -26.007812 21.554688 -35.019531 21.453125 -45.03125 C 21.359375 -55.039062 21.3125 -65.046875 21.3125 -75.046875 L 21.3125 -124.578125 C 21.3125 -134.585938 21.359375 -144.59375 21.453125 -154.59375 C 21.554688 -164.601562 20.957031 -173.609375 19.65625 -181.609375 C 18.363281 -189.617188 15.710938 -195.628906 11.703125 -199.640625 L 42.328125 -199.640625 L 42.328125 -75.046875 C 42.328125 -65.046875 42.273438 -55.039062 42.171875 -45.03125 C 42.078125 -35.019531 42.679688 -26.007812 43.984375 -18 C 45.285156 -10 47.9375 -4 51.9375 0 Z M 28.21875 -228.15625 C 23.21875 -228.15625 19.015625 -229.851562 15.609375 -233.25 C 12.203125 -236.65625 10.5 -240.859375 10.5 -245.859375 C 10.5 -250.671875 12.203125 -254.773438 15.609375 -258.171875 C 19.015625 -261.578125 23.21875 -263.28125 28.21875 -263.28125 C 33.019531 -263.28125 37.117188 -261.578125 40.515625 -258.171875 C 43.921875 -254.773438 45.625 -250.671875 45.625 -245.859375 C 45.625 -240.859375 43.921875 -236.65625 40.515625 -233.25 C 37.117188 -229.851562 33.019531 -228.15625 28.21875 -228.15625 Z M 28.21875 -228.15625 "/></g></g></g><g fill="#000000" fill-opacity="1"><g transform="translate(282.879871, 303.670214)"><g><path d="M 20.109375 -124.578125 C 20.109375 -134.585938 20.15625 -144.59375 20.25 -154.59375 C 20.351562 -164.601562 19.753906 -173.609375 18.453125 -181.609375 C 17.160156 -189.617188 14.507812 -195.628906 10.5 -199.640625 L 41.125 -199.640625 L 41.125 -36.625 C 44.332031 -42.425781 48.1875 -50.429688 52.6875 -60.640625 C 57.1875 -70.847656 62.238281 -82.207031 67.84375 -94.71875 C 73.445312 -107.226562 79.597656 -119.785156 86.296875 -132.390625 C 93.003906 -144.992188 100.0625 -156.597656 107.46875 -167.203125 C 114.875 -177.816406 122.679688 -186.375 130.890625 -192.875 C 139.097656 -199.382812 147.503906 -202.640625 156.109375 -202.640625 C 163.710938 -202.640625 169.316406 -200.4375 172.921875 -196.03125 C 176.523438 -191.625 178.925781 -185.519531 180.125 -177.71875 C 181.320312 -169.914062 181.921875 -160.707031 181.921875 -150.09375 L 181.921875 -75.046875 C 181.921875 -65.046875 181.867188 -55.039062 181.765625 -45.03125 C 181.671875 -35.019531 182.273438 -26.007812 183.578125 -18 C 184.878906 -10 187.53125 -4 191.53125 0 L 151.296875 0 C 155.304688 -4 157.957031 -10 159.25 -18 C 160.550781 -26.007812 161.148438 -35.019531 161.046875 -45.03125 C 160.953125 -55.039062 160.90625 -65.046875 160.90625 -75.046875 L 160.90625 -166.3125 C 160.90625 -166.3125 160.90625 -167.410156 160.90625 -169.609375 C 160.90625 -171.816406 160.503906 -174.320312 159.703125 -177.125 C 158.898438 -179.925781 157.398438 -182.425781 155.203125 -184.625 C 153.003906 -186.820312 149.800781 -187.921875 145.59375 -187.921875 C 138.988281 -187.921875 132.285156 -184.46875 125.484375 -177.5625 C 118.679688 -170.664062 111.828125 -161.5625 104.921875 -150.25 C 98.015625 -138.945312 91.304688 -126.488281 84.796875 -112.875 C 78.296875 -99.269531 72.039062 -85.660156 66.03125 -72.046875 C 60.03125 -58.441406 54.476562 -45.984375 49.375 -34.671875 C 44.28125 -23.367188 39.832031 -14.265625 36.03125 -7.359375 C 32.226562 -0.453125 29.125 3 26.71875 3 C 24.113281 3 22.359375 1.847656 21.453125 -0.453125 C 20.554688 -2.753906 20.109375 -5.101562 20.109375 -7.5 Z M 20.109375 -124.578125 "/></g></g></g><g fill="#000000" fill-opacity="1"><g transform="translate(474.695277, 303.670214)"><g><path d="M 15.015625 -49.828125 C 15.015625 -67.441406 18.113281 -84.15625 24.3125 -99.96875 C 30.519531 -115.78125 38.875 -130.140625 49.375 -143.046875 C 59.882812 -155.953125 71.742188 -167.007812 84.953125 -176.21875 C 98.160156 -185.425781 111.96875 -192.378906 126.375 -197.078125 C 140.789062 -201.785156 154.800781 -203.738281 168.40625 -202.9375 L 168.40625 -223.046875 C 168.40625 -233.054688 168.457031 -243.265625 168.5625 -253.671875 C 168.664062 -264.078125 168.066406 -273.484375 166.765625 -281.890625 C 165.460938 -290.296875 162.8125 -296.5 158.8125 -300.5 L 199.03125 -300.5 C 195.03125 -296.5 192.378906 -290.296875 191.078125 -281.890625 C 189.773438 -273.484375 189.171875 -264.078125 189.265625 -253.671875 C 189.367188 -243.265625 189.421875 -233.054688 189.421875 -223.046875 C 189.421875 -223.046875 189.421875 -220.144531 189.421875 -214.34375 C 189.421875 -208.539062 189.367188 -200.9375 189.265625 -191.53125 C 189.171875 -182.125 189.125 -171.765625 189.125 -160.453125 C 189.125 -149.148438 189.070312 -137.941406 188.96875 -126.828125 C 188.875 -115.722656 188.828125 -105.617188 188.828125 -96.515625 C 188.828125 -87.410156 188.828125 -80.351562 188.828125 -75.34375 C 188.828125 -65.34375 188.773438 -55.335938 188.671875 -45.328125 C 188.578125 -35.328125 189.179688 -26.320312 190.484375 -18.3125 C 191.785156 -10.300781 194.4375 -4.296875 198.4375 -0.296875 L 105.96875 -0.296875 C 97.757812 -0.296875 89.351562 -0.242188 80.75 -0.140625 C 72.144531 -0.046875 63.941406 -0.445312 56.140625 -1.34375 C 48.335938 -2.25 41.332031 -4.351562 35.125 -7.65625 C 28.914062 -10.957031 24.007812 -15.957031 20.40625 -22.65625 C 16.8125 -29.363281 15.015625 -38.421875 15.015625 -49.828125 Z M 168.40625 -195.734375 C 160.40625 -195.734375 150.75 -194.03125 139.4375 -190.625 C 128.132812 -187.226562 116.578125 -181.925781 104.765625 -174.71875 C 92.960938 -167.507812 81.957031 -158.148438 71.75 -146.640625 C 61.539062 -135.140625 53.234375 -121.234375 46.828125 -104.921875 C 40.421875 -88.609375 37.21875 -69.644531 37.21875 -48.03125 C 37.21875 -37.019531 39.21875 -28.660156 43.21875 -22.953125 C 47.226562 -17.253906 52.9375 -13.40625 60.34375 -11.40625 C 67.75 -9.40625 76.703125 -8.351562 87.203125 -8.25 C 97.710938 -8.15625 109.570312 -8.109375 122.78125 -8.109375 L 168.40625 -8.109375 Z M 168.40625 -195.734375 "/></g></g></g><g fill="#000000" fill-opacity="1"><g transform="translate(674.015247, 303.670214)"><g><path d="M 20.109375 -124.578125 C 20.109375 -134.585938 20.15625 -144.59375 20.25 -154.59375 C 20.351562 -164.601562 19.753906 -173.609375 18.453125 -181.609375 C 17.160156 -189.617188 14.507812 -195.628906 10.5 -199.640625 L 41.125 -199.640625 L 41.125 -39.03125 C 46.132812 -51.238281 51.390625 -64.695312 56.890625 -79.40625 C 62.390625 -94.113281 68.289062 -108.671875 74.59375 -123.078125 C 80.90625 -137.492188 88.007812 -150.703125 95.90625 -162.703125 C 103.8125 -174.710938 112.664062 -184.367188 122.46875 -191.671875 C 132.28125 -198.984375 143.289062 -202.640625 155.5 -202.640625 C 162.3125 -202.640625 167.765625 -202.140625 171.859375 -201.140625 C 175.960938 -200.140625 178.015625 -199.640625 178.015625 -199.640625 L 178.015625 -174.71875 C 178.015625 -174.71875 176.015625 -175.414062 172.015625 -176.8125 C 168.015625 -178.21875 162.410156 -178.921875 155.203125 -178.921875 C 143.597656 -178.921875 133.039062 -175.617188 123.53125 -169.015625 C 114.03125 -162.410156 105.425781 -153.703125 97.71875 -142.890625 C 90.007812 -132.085938 83.050781 -120.226562 76.84375 -107.3125 C 70.644531 -94.40625 64.992188 -81.5 59.890625 -68.59375 C 54.785156 -55.6875 50.234375 -43.828125 46.234375 -33.015625 C 42.234375 -22.210938 38.582031 -13.507812 35.28125 -6.90625 C 31.976562 -0.300781 28.820312 3 25.8125 3 C 23.414062 3 21.863281 1.847656 21.15625 -0.453125 C 20.457031 -2.753906 20.109375 -5.101562 20.109375 -7.5 Z M 20.109375 -124.578125 "/></g></g></g><g fill="#000000" fill-opacity="1"><g transform="translate(847.819807, 303.670214)"><g><path d="M 15.015625 -102.375 C 15.015625 -114.976562 17.015625 -127.234375 21.015625 -139.140625 C 25.015625 -151.046875 31.066406 -161.800781 39.171875 -171.40625 C 47.273438 -181.019531 57.628906 -188.628906 70.234375 -194.234375 C 82.847656 -199.835938 97.660156 -202.640625 114.671875 -202.640625 C 130.890625 -202.640625 145.453125 -199.1875 158.359375 -192.28125 C 171.265625 -185.375 181.46875 -176.066406 188.96875 -164.359375 C 196.476562 -152.648438 200.234375 -139.390625 200.234375 -124.578125 C 200.234375 -121.378906 200.03125 -117.925781 199.625 -114.21875 C 199.226562 -110.519531 198.53125 -107.367188 197.53125 -104.765625 C 196.53125 -102.171875 195.226562 -100.875 193.625 -100.875 L 37.828125 -100.875 C 38.023438 -83.457031 40.375 -68.796875 44.875 -56.890625 C 49.382812 -44.984375 55.441406 -35.425781 63.046875 -28.21875 C 70.648438 -21.007812 79.101562 -15.804688 88.40625 -12.609375 C 97.71875 -9.410156 107.175781 -7.8125 116.78125 -7.8125 C 127.382812 -7.8125 137.585938 -9.410156 147.390625 -12.609375 C 157.203125 -15.804688 165.660156 -20.109375 172.765625 -25.515625 C 179.867188 -30.921875 184.625 -36.828125 187.03125 -43.234375 L 195.125 -40.234375 C 186.925781 -27.421875 176.019531 -17.007812 162.40625 -9 C 148.800781 -1 132.691406 3 114.078125 3 C 98.265625 3 84.203125 0.0507812 71.890625 -5.84375 C 59.585938 -11.75 49.179688 -19.753906 40.671875 -29.859375 C 32.171875 -39.972656 25.769531 -51.285156 21.46875 -63.796875 C 17.164062 -76.304688 15.015625 -89.164062 15.015625 -102.375 Z M 38.125 -108.375 L 178.625 -108.375 C 178.625 -108.375 178.875 -110.472656 179.375 -114.671875 C 179.875 -118.878906 180.070312 -124.285156 179.96875 -130.890625 C 179.875 -137.492188 178.875 -144.445312 176.96875 -151.75 C 175.070312 -159.050781 171.820312 -166.003906 167.21875 -172.609375 C 162.613281 -179.222656 156.109375 -184.628906 147.703125 -188.828125 C 139.296875 -193.023438 128.390625 -195.125 114.984375 -195.125 C 103.171875 -195.125 92.609375 -192.722656 83.296875 -187.921875 C 73.992188 -183.117188 66.085938 -176.613281 59.578125 -168.40625 C 53.078125 -160.207031 48.023438 -150.953125 44.421875 -140.640625 C 40.828125 -130.335938 38.726562 -119.582031 38.125 -108.375 Z M 38.125 -108.375 "/></g></g></g><g fill="#000000" fill-opacity="1"><g transform="translate(1052.843175, 303.670214)"><g><path d="M 15.015625 -49.828125 C 15.015625 -67.441406 18.113281 -84.15625 24.3125 -99.96875 C 30.519531 -115.78125 38.875 -130.140625 49.375 -143.046875 C 59.882812 -155.953125 71.742188 -167.007812 84.953125 -176.21875 C 98.160156 -185.425781 111.96875 -192.378906 126.375 -197.078125 C 140.789062 -201.785156 154.800781 -203.738281 168.40625 -202.9375 L 168.40625 -223.046875 C 168.40625 -233.054688 168.457031 -243.265625 168.5625 -253.671875 C 168.664062 -264.078125 168.066406 -273.484375 166.765625 -281.890625 C 165.460938 -290.296875 162.8125 -296.5 158.8125 -300.5 L 199.03125 -300.5 C 195.03125 -296.5 192.378906 -290.296875 191.078125 -281.890625 C 189.773438 -273.484375 189.171875 -264.078125 189.265625 -253.671875 C 189.367188 -243.265625 189.421875 -233.054688 189.421875 -223.046875 C 189.421875 -223.046875 189.421875 -220.144531 189.421875 -214.34375 C 189.421875 -208.539062 189.367188 -200.9375 189.265625 -191.53125 C 189.171875 -182.125 189.125 -171.765625 189.125 -160.453125 C 189.125 -149.148438 189.070312 -137.941406 188.96875 -126.828125 C 188.875 -115.722656 188.828125 -105.617188 188.828125 -96.515625 C 188.828125 -87.410156 188.828125 -80.351562 188.828125 -75.34375 C 188.828125 -65.34375 188.773438 -55.335938 188.671875 -45.328125 C 188.578125 -35.328125 189.179688 -26.320312 190.484375 -18.3125 C 191.785156 -10.300781 194.4375 -4.296875 198.4375 -0.296875 L 105.96875 -0.296875 C 97.757812 -0.296875 89.351562 -0.242188 80.75 -0.140625 C 72.144531 -0.046875 63.941406 -0.445312 56.140625 -1.34375 C 48.335938 -2.25 41.332031 -4.351562 35.125 -7.65625 C 28.914062 -10.957031 24.007812 -15.957031 20.40625 -22.65625 C 16.8125 -29.363281 15.015625 -38.421875 15.015625 -49.828125 Z M 168.40625 -195.734375 C 160.40625 -195.734375 150.75 -194.03125 139.4375 -190.625 C 128.132812 -187.226562 116.578125 -181.925781 104.765625 -174.71875 C 92.960938 -167.507812 81.957031 -158.148438 71.75 -146.640625 C 61.539062 -135.140625 53.234375 -121.234375 46.828125 -104.921875 C 40.421875 -88.609375 37.21875 -69.644531 37.21875 -48.03125 C 37.21875 -37.019531 39.21875 -28.660156 43.21875 -22.953125 C 47.226562 -17.253906 52.9375 -13.40625 60.34375 -11.40625 C 67.75 -9.40625 76.703125 -8.351562 87.203125 -8.25 C 97.710938 -8.15625 109.570312 -8.109375 122.78125 -8.109375 L 168.40625 -8.109375 Z M 168.40625 -195.734375 "/></g></g></g></g></g></g><g clip-path="url(#b096d95559)"><path fill="#231f20" d="M 878.402344 394.207031 C 732.871094 400.875 586.789062 401.324219 440.941406 400.355469 C 353.398438 399.515625 265.816406 398.117188 178.464844 394.207031 L 178.464844 391.976562 C 236.714844 389.296875 295.078125 387.96875 353.449219 386.925781 C 499.253906 384.648438 645.179688 384.648438 790.910156 388.660156 C 820.097656 389.515625 849.265625 390.488281 878.402344 391.976562 Z M 878.402344 394.207031 " fill-opacity="1" fill-rule="nonzero"/></g><g clip-path="url(#fac6f309bc)"><path fill="#231f20" d="M 1086.058594 394.207031 C 940.523438 400.875 794.445312 401.324219 648.59375 400.355469 C 561.050781 399.515625 473.46875 398.117188 386.121094 394.207031 L 386.121094 391.976562 C 444.371094 389.296875 502.734375 387.96875 561.105469 386.925781 C 706.90625 384.648438 852.832031 384.648438 998.566406 388.660156 C 1027.75 389.515625 1056.917969 390.488281 1086.058594 391.976562 Z M 1086.058594 394.207031 " fill-opacity="1" fill-rule="nonzero"/></g></g></g></svg>